<svg width="104" height="55" viewBox="0 0 104 55" fill="none" xmlns="http://www.w3.org/2000/svg">
<path fill-rule="evenodd" clip-rule="evenodd" d="M38.5835 0.25C38.0312 0.25 37.5835 0.697715 37.5835 1.25V5.97316C37.5835 6.52545 38.0312 6.97316 38.5835 6.97316H77.5767C88.427 6.97316 96.9486 15.3267 96.9486 26.1405C96.9486 26.4464 97.1966 26.6944 97.5026 26.6944H103.141C103.447 26.6944 103.695 26.4464 103.695 26.1405C103.695 11.6877 92.0782 0.25 77.5767 0.25H38.5835Z" fill="#6B7B84" stroke="#80949F" stroke-width="0.5"/>
<path fill-rule="evenodd" clip-rule="evenodd" d="M7.08652 27.1639C7.08652 26.9046 6.87627 26.6943 6.61692 26.6943H0.719598C0.460246 26.6943 0.25 26.9046 0.25 27.1639C0.25 41.7883 11.2035 53.8627 25.3671 54.6529L70.8047 54.6934C71.3573 54.6939 71.8056 54.2461 71.8056 53.6934V48.6438C71.8056 48.0915 71.3578 47.6438 70.8056 47.6438H26.9291C15.9617 47.6134 7.08652 38.4898 7.08652 27.1639Z" fill="#6B7B84" stroke="#80949F" stroke-width="0.5"/>
<path fill-rule="evenodd" clip-rule="evenodd" d="M29.6236 42.2498C32.5581 42.2498 35.0024 41.6797 37.4166 40.5067L37.5832 40.3507V31.9567L36.6798 33.1132C34.9415 35.0127 32.607 36.0583 29.9657 36.0583C25.0462 36.0583 20.1051 32.8785 20.1051 26.8013C20.1051 22.2088 23.5128 17.3279 29.7927 17.3279C31.0458 17.3279 34.0931 17.6242 36.6755 20.3665L37.5832 21.4848V13.1287L37.4239 12.9707C34.964 11.738 32.4552 11.1387 29.5938 11.1387C24.7007 11.1387 20.8814 12.4269 17.8404 15.0746C15.9115 16.734 12.6943 20.4527 12.6943 26.7139C12.6943 31.3433 14.3427 34.9588 17.8651 38.0947C21.1419 40.9681 24.7752 42.2498 29.6236 42.2498Z" fill="#6B7B84"/>
<path d="M29.6236 42.2498C32.5581 42.2498 35.0024 41.6797 37.4166 40.5067L37.5832 40.3507V31.9567L36.6798 33.1132C34.9415 35.0127 32.607 36.0583 29.9657 36.0583C25.0462 36.0583 20.1051 32.8785 20.1051 26.8013C20.1051 22.2088 23.5129 17.3279 29.7927 17.3279C31.0458 17.3279 34.0931 17.6242 36.6755 20.3665L37.5832 21.4848V13.1287L37.4239 12.9707C34.964 11.738 32.4552 11.1387 29.5938 11.1387C24.7007 11.1387 20.8814 12.4269 17.8404 15.0746C15.9115 16.734 12.6943 20.4527 12.6943 26.7139C12.6943 31.3433 14.3427 34.9588 17.8651 38.0947C21.1419 40.9681 24.7752 42.2498 29.6236 42.2498" stroke="#80949F" stroke-width="0.5"/>
<path fill-rule="evenodd" clip-rule="evenodd" d="M50.8057 18.1387H52.2674C53.6083 18.1387 55.1365 18.2118 56.2932 19.0002C56.858 19.4037 57.8057 20.3377 57.8057 22.0341C57.8057 23.2877 57.2517 24.4118 56.3366 25.1132C55.1634 25.9648 53.7689 25.9159 52.6483 25.9159H50.8057V18.1387ZM54.0903 31.5628C57.5526 31.5628 60.2626 30.5641 62.1446 28.6827C64.4597 26.3724 64.8057 23.1943 64.8057 21.5189C64.8057 19.7261 64.3807 16.2293 61.5306 13.6974C59.1944 11.6502 56.7017 11.1387 53.1855 11.1387H43.8057V42.2498H50.9399V31.5628H54.0903Z" fill="#6B7B84"/>
<path d="M50.8057 18.1387V17.8887H50.5557V18.1387H50.8057ZM56.2932 19.0002L56.4386 18.7968L56.434 18.7937L56.2932 19.0002ZM56.3366 25.1132L56.4835 25.3156L56.4887 25.3116L56.3366 25.1132ZM50.8057 25.9159H50.5557V26.1659H50.8057V25.9159ZM62.1446 28.6827L61.968 28.5058L61.9679 28.5059L62.1446 28.6827ZM61.5306 13.6974L61.6966 13.5105L61.6954 13.5094L61.5306 13.6974ZM43.8057 11.1387V10.8887H43.5557V11.1387H43.8057ZM43.8057 42.2498H43.5557V42.4998H43.8057V42.2498ZM50.9399 42.2498V42.4998H51.1899V42.2498H50.9399ZM50.9399 31.5628V31.3128H50.6899V31.5628H50.9399ZM50.8057 18.3887H52.2674V17.8887H50.8057V18.3887ZM52.2674 18.3887C53.614 18.3887 55.0671 18.4671 56.1524 19.2068L56.434 18.7937C55.206 17.9566 53.6026 17.8887 52.2674 17.8887V18.3887ZM56.1479 19.2037C56.6732 19.5789 57.5557 20.446 57.5557 22.0341H58.0557C58.0557 20.2294 57.0428 19.2285 56.4385 18.7968L56.1479 19.2037ZM57.5557 22.0341C57.5557 23.2136 57.035 24.2629 56.1845 24.9148L56.4887 25.3116C57.4683 24.5607 58.0557 23.3618 58.0557 22.0341H57.5557ZM56.1898 24.9109C55.0942 25.7061 53.7892 25.6659 52.6483 25.6659V26.1659C53.7485 26.1659 55.2326 26.2235 56.4835 25.3155L56.1898 24.9109ZM52.6483 25.6659H50.8057V26.1659H52.6483V25.6659ZM51.0557 25.9159V18.1387H50.5557V25.9159H51.0557ZM54.0903 31.8128C57.601 31.8128 60.3812 30.799 62.3214 28.8595L61.9679 28.5059C60.144 30.3292 57.5041 31.3128 54.0903 31.3128V31.8128ZM62.3212 28.8597C64.7076 26.4782 65.0557 23.2158 65.0557 21.5189H64.5557C64.5557 23.1729 64.2117 26.2667 61.968 28.5058L62.3212 28.8597ZM65.0557 21.5189C65.0557 19.698 64.6257 16.1125 61.6966 13.5105L61.3646 13.8843C64.1357 16.346 64.5557 19.7541 64.5557 21.5189H65.0557ZM61.6954 13.5094C59.2936 11.4048 56.7292 10.8887 53.1855 10.8887V11.3887C56.6742 11.3887 59.0951 11.8956 61.3658 13.8854L61.6954 13.5094ZM53.1855 10.8887H43.8057V11.3887H53.1855V10.8887ZM43.5557 11.1387V42.2498H44.0557V11.1387H43.5557ZM43.8057 42.4998H50.9399V41.9998H43.8057V42.4998ZM51.1899 42.2498V31.5628H50.6899V42.2498H51.1899ZM50.9399 31.8128H54.0903V31.3128H50.9399V31.8128Z" fill="#80949F"/>
<path fill-rule="evenodd" clip-rule="evenodd" d="M86.2072 25.8315C84.6561 24.4573 82.491 23.6606 80.0336 22.8343C78.2828 22.225 77.318 21.8894 76.6749 21.303C76.1673 20.8721 75.9409 20.4043 75.9409 19.786C75.9409 18.4317 76.8612 16.9843 79.4447 16.9843C81.2005 16.9843 82.6705 17.735 83.8143 19.2147L84.2684 19.8023L88.0358 15.0067L87.6923 14.6627C85.3882 12.357 82.352 11.1387 78.9117 11.1387C71.9707 11.1387 68.8637 15.6542 68.8637 20.1295C68.8637 22.531 69.7201 24.4679 71.4039 25.8838C72.9114 27.1758 74.7499 27.8998 76.5133 28.4908L76.7126 28.5569C78.2786 29.0745 79.8981 29.6102 80.8654 30.4758C81.5384 31.0942 81.8383 31.7661 81.8383 32.6544C81.8383 34.6902 80.2351 36.0583 77.849 36.0583C75.9628 36.0583 73.4792 35.1338 72.1651 32.5397L71.8214 31.86L67.1387 36.1948L67.4148 36.5854C68.9089 38.7008 72.2802 42.2498 78.0711 42.2498C84.4565 42.2498 88.9165 38.1445 88.9165 32.267C88.9165 28.9052 87.4415 26.9099 86.2072 25.8315Z" fill="#6B7B84"/>
<path d="M86.2072 25.8315C84.6561 24.4573 82.491 23.6606 80.0336 22.8343C78.2828 22.225 77.318 21.8894 76.6749 21.303C76.1673 20.8721 75.9409 20.4043 75.9409 19.786C75.9409 18.4317 76.8612 16.9843 79.4447 16.9843C81.2005 16.9843 82.6705 17.735 83.8143 19.2147L84.2684 19.8023L88.0358 15.0067L87.6923 14.6627C85.3882 12.357 82.352 11.1387 78.9117 11.1387C71.9707 11.1387 68.8637 15.6542 68.8637 20.1295C68.8637 22.531 69.7201 24.4679 71.4039 25.8838C72.9114 27.1758 74.7499 27.8998 76.5133 28.4908L76.7126 28.5569C78.2786 29.0745 79.8981 29.6102 80.8654 30.4758C81.5384 31.0942 81.8383 31.7661 81.8383 32.6544C81.8383 34.6902 80.2351 36.0583 77.849 36.0583C75.9628 36.0583 73.4792 35.1338 72.1651 32.5397L71.8214 31.86L67.1387 36.1948L67.4148 36.5854C68.9089 38.7008 72.2802 42.2498 78.0711 42.2498C84.4565 42.2498 88.9165 38.1445 88.9165 32.267C88.9165 28.9052 87.4415 26.9099 86.2072 25.8315" stroke="#80949F" stroke-width="0.5"/>
</svg>
